<svg width="18" height="18" viewBox="0 0 18 18" fill="none" xmlns="http://www.w3.org/2000/svg">
<rect x="17.6553" y="17.5249" width="17.0653" height="17.2048" rx="8.53265" transform="rotate(-180 17.6553 17.5249)" fill="#FF5B5B" fill-opacity="0.15"/>
<g clip-path="url(#clip0_13_2235)">
<path d="M7.01095 9.78621L8.76767 11.5573C8.86179 11.6522 8.98943 11.7054 9.12253 11.7054C9.25562 11.7054 9.38326 11.6522 9.47738 11.5573L11.2341 9.78621C11.3255 9.69077 11.3761 9.56295 11.375 9.43027C11.3738 9.29759 11.3211 9.17067 11.228 9.07685C11.1349 8.98303 11.009 8.92981 10.8774 8.92866C10.7458 8.92751 10.6191 8.97851 10.5244 9.07069L9.62445 9.97799L9.62445 6.64532C9.62445 6.51111 9.57157 6.38241 9.47744 6.28751C9.38331 6.19261 9.25564 6.1393 9.12253 6.1393C8.98941 6.1393 8.86174 6.19261 8.76762 6.28751C8.67349 6.38241 8.62061 6.51111 8.62061 6.64532L8.62061 9.97799L7.72066 9.07069C7.626 8.97851 7.49921 8.92751 7.36761 8.92866C7.23601 8.92981 7.11012 8.98303 7.01706 9.07685C6.924 9.17067 6.87122 9.29759 6.87007 9.43027C6.86893 9.56295 6.91952 9.69077 7.01095 9.78621Z" fill="#FF6154"/>
</g>
<defs>
<clipPath id="clip0_13_2235">
<rect width="6.02304" height="6.07228" fill="white" transform="translate(12.1342 11.9586) rotate(-180)"/>
</clipPath>
</defs>
</svg>
