<svg width="18" height="18" viewBox="0 0 18 18" fill="none" xmlns="http://www.w3.org/2000/svg">
<rect x="17.7869" y="17.5249" width="17.0653" height="17.2048" rx="8.53265" transform="rotate(-180 17.7869 17.5249)" fill="#2ED6A3" fill-opacity="0.15"/>
<g clip-path="url(#clip0_385_15815)">
<path d="M7.14254 8.77417C7.23666 8.86904 7.36431 8.92233 7.4974 8.92233C7.63049 8.92233 7.75813 8.86904 7.85225 8.77417L8.7522 7.86687L8.7522 11.1995C8.7522 11.3337 8.80508 11.4625 8.89921 11.5574C8.99334 11.6523 9.121 11.7056 9.25412 11.7056C9.38724 11.7056 9.5149 11.6523 9.60903 11.5574C9.70316 11.4625 9.75604 11.3337 9.75604 11.1995L9.75604 7.86687L10.656 8.77417C10.7506 8.86635 10.8774 8.91735 11.009 8.9162C11.1406 8.91505 11.2665 8.86183 11.3596 8.76801C11.4526 8.67419 11.5054 8.54727 11.5066 8.41459C11.5077 8.28192 11.4571 8.15409 11.3657 8.05866L9.60898 6.28758C9.51485 6.19271 9.38721 6.13942 9.25412 6.13942C9.12103 6.13942 8.99338 6.19271 8.89926 6.28758L7.14254 8.05866C7.04844 8.15355 6.99558 8.28224 6.99558 8.41642C6.99558 8.55059 7.04844 8.67928 7.14254 8.77417Z" fill="#00A389"/>
</g>
<defs>
<clipPath id="clip0_385_15815">
<rect width="6.02304" height="6.07228" fill="white" transform="translate(12.2656 11.9586) rotate(-180)"/>
</clipPath>
</defs>
</svg>
