<svg width="84" height="61" viewBox="0 0 84 61" fill="none" xmlns="http://www.w3.org/2000/svg">
<g id="Icon_Order">
<g id="Group 121">
<g id="Group 118">
<g id="Group">
<path id="Vector" d="M9.01819 61C13.4865 61 17.1374 57.3147 17.1374 52.8043V0H64.5446V52.8043C64.5446 57.3147 60.8936 61 56.4254 61" fill="#FF8980"/>
</g>
<g id="Group_2">
<path id="Vector_2" d="M48.3064 52.8044V46.5889H0.89917V52.8044C0.89917 57.3147 4.55007 61 9.01834 61H56.4255C51.9573 61 48.3064 57.3147 48.3064 52.8044Z" fill="#CD4135"/>
</g>
<g id="Group_3">
<g id="Group_4">
<path id="Vector_3" d="M31.6868 10.5057H25.6383V13.146H31.6868V10.5057Z" fill="#353535"/>
</g>
</g>
<g id="Group_5">
<g id="Group_6">
<path id="Vector_4" d="M54.9542 10.5057H36.3728V13.146H54.9542V10.5057Z" fill="#F7C604"/>
</g>
</g>
<g id="Group_7">
<g id="Group_8">
<path id="Vector_5" d="M31.6868 19.8564H25.6383V22.4967H31.6868V19.8564Z" fill="#353535"/>
</g>
</g>
<g id="Group_9">
<g id="Group_10">
<path id="Vector_6" d="M54.9542 19.8564H36.3728V22.4967H54.9542V19.8564Z" fill="#F7C604"/>
</g>
</g>
<g id="Group_11">
<g id="Group_12">
<path id="Vector_7" d="M31.6868 29.2074H25.6383V31.8476H31.6868V29.2074Z" fill="#353535"/>
</g>
</g>
<g id="Group_13">
<g id="Group_14">
<path id="Vector_8" d="M54.9542 29.2074H36.3728V31.8476H54.9542V29.2074Z" fill="#F7C604"/>
</g>
</g>
<g id="Group_15">
<g id="Group_16">
<path id="Vector_9" d="M31.6868 38.5581H25.6383V41.1983H31.6868V38.5581Z" fill="#353535"/>
</g>
</g>
<g id="Group_17">
<g id="Group_18">
<path id="Vector_10" d="M54.9542 38.5581H36.3728V41.1983H54.9542V38.5581Z" fill="#F7C604"/>
</g>
</g>
<g id="Group_19">
<path id="Vector_11" opacity="0.1" d="M64.5444 38.9984V7.59079C63.8905 7.48079 63.1821 7.42578 62.4737 7.42578C53.8096 7.42578 46.7803 14.5214 46.7803 23.2671C46.7803 32.0128 53.8096 39.1084 62.4737 39.1084C63.1821 39.1634 63.8905 39.1084 64.5444 38.9984Z" fill="#0C1E5B"/>
</g>
<g id="Group_20">
<path id="Vector_12" d="M67.9785 35.9735C76.6458 35.9735 83.6721 28.881 83.6721 20.132C83.6721 11.383 76.6458 4.29053 67.9785 4.29053C59.3112 4.29053 52.2849 11.383 52.2849 20.132C52.2849 28.881 59.3112 35.9735 67.9785 35.9735Z" fill="#FF5B5B"/>
</g>
<g id="Group_21">
<path id="Vector_13" d="M70.7569 21.2318V11.386H65.1988V21.2318H61.4934L67.9778 28.8774L74.4623 21.2318H70.7569Z" fill="white"/>
</g>
</g>
</g>
</g>
</svg>
