<svg width="79" height="62" viewBox="0 0 79 62" fill="none" xmlns="http://www.w3.org/2000/svg">
<g id="Group 82">
<g id="Group 120">
<g id="Group 117">
<g id="Group">
<path id="Vector" d="M31.2011 0L0.00219727 12.8699L31.2011 25.7398L62.4001 12.8699L31.2011 0Z" fill="#FF6154"/>
</g>
<g id="Group_2">
<path id="Vector_2" d="M18.5379 5.25073L12.6658 7.61879L43.8647 20.5401L49.6858 18.1206L18.5379 5.25073Z" fill="#F7C604"/>
</g>
<g id="Group_3">
<path id="Vector_3" d="M0.00219727 12.8701V48.3395L31.2011 61.2094V25.74L0.00219727 12.8701Z" fill="#CD4135"/>
</g>
<g id="Group_4">
<path id="Vector_4" d="M62.4001 12.8701V48.3395L31.2012 61.2094V25.74L62.4001 12.8701Z" fill="#FF8980"/>
</g>
<g id="Group_5">
<path id="Vector_5" opacity="0.1" d="M62.4 30.9909C61.4809 30.785 60.5618 30.682 59.5916 30.682C52.0344 30.682 45.907 36.8595 45.907 44.4785C45.907 48.0306 47.2346 51.2738 49.4303 53.6933L62.4 48.3395V30.9909Z" fill="#0C1E5B"/>
</g>
<g id="Group_6">
<path id="Vector_6" d="M43.8647 20.5403V35.4178L49.6858 32.9983V18.1207L43.8647 20.5403Z" fill="#F7C604"/>
</g>
<g id="Group_7">
<path id="Vector_7" d="M65.1573 57.2452C72.7151 57.2452 78.8419 51.0683 78.8419 43.4487C78.8419 35.8291 72.7151 29.6522 65.1573 29.6522C57.5995 29.6522 51.4727 35.8291 51.4727 43.4487C51.4727 51.0683 57.5995 57.2452 65.1573 57.2452Z" fill="#FF6154"/>
</g>
<g id="Group_8">
<path id="Vector_8" d="M63.7281 48.8027C63.3196 48.8027 62.9622 48.6483 62.6558 48.3394L58.3155 43.9636C57.7028 43.3459 57.7028 42.3678 58.3155 41.8015C58.9283 41.1837 59.8984 41.1837 60.4601 41.8015L63.7281 45.0962L69.8556 38.9186C70.4683 38.3009 71.4385 38.3009 72.0002 38.9186C72.6129 39.5364 72.6129 40.5145 72.0002 41.0808L64.8004 48.3394C64.494 48.6483 64.1366 48.8027 63.7281 48.8027Z" fill="white"/>
</g>
<g id="Group_9">
<path id="Vector_9" d="M10.1126 43.5517L6.74251 36.5505L3.57666 40.7204L5.31277 41.4926V46.0228L8.12119 47.3098V42.7281L10.1126 43.5517Z" fill="#F2F5F3"/>
</g>
</g>
</g>
</g>
</svg>
