<svg width="58" height="51" viewBox="0 0 58 51" fill="none" xmlns="http://www.w3.org/2000/svg">
<g id="noun-food-5003612 1" opacity="0.5">
<g id="Group">
<path id="Vector" fill-rule="evenodd" clip-rule="evenodd" d="M54.1836 33.2177C54.1836 19.8626 44.843 9.8276 33.2847 7.68175C33.6396 6.94771 33.828 6.14487 33.8373 5.3294C33.8559 3.9228 33.3102 2.56681 32.3222 1.56533C31.3337 0.56383 29.9857 0 28.5785 0C27.1713 0 25.8233 0.563783 24.8348 1.56533C23.8468 2.56684 23.3011 3.9228 23.3197 5.3294C23.2969 6.14855 23.4881 6.95939 23.8747 7.68175C17.9303 8.78233 12.566 11.9487 8.7298 16.6212C4.89357 21.2938 2.83155 27.1721 2.90919 33.2177C2.15423 33.1903 1.42018 33.468 0.872645 33.9885C0.325606 34.509 0.0106936 35.2281 0 35.9831V39.3057C0.00744263 40.6435 0.542383 41.9246 1.48853 42.8703C2.43513 43.8165 3.71619 44.351 5.05396 44.3579H5.60611L6.16106 47.7481C6.32154 48.6588 6.79741 49.4845 7.50585 50.079C8.21429 50.6739 9.10977 51 10.0349 51H47.1266C48.0481 50.9884 48.937 50.6581 49.6432 50.065C50.3488 49.4724 50.8279 48.6537 50.9987 47.748L51.5536 44.3579H52.1086C53.4455 44.3495 54.7256 43.8146 55.6703 42.8689C56.6155 41.9232 57.1495 40.6427 57.1569 39.3057V35.9831C57.1416 35.2179 56.8169 34.4913 56.2559 33.9704C55.6954 33.4489 54.9478 33.1772 54.1836 33.2177ZM52.1089 40.9646L5.05364 40.9641C4.14098 40.9544 3.40281 40.2185 3.38971 39.3058V36.6083H53.7674V39.3058C53.7553 40.2166 53.0197 40.9524 52.1089 40.9646ZM47.6792 47.194C47.6006 47.4345 47.3801 47.6006 47.127 47.6089H10.0354C9.78138 47.602 9.55949 47.4354 9.48135 47.194L8.99479 44.358H48.1633L47.6792 47.194ZM28.5784 10.5906C40.3429 10.5906 50.8599 19.9273 50.8599 33.2173H6.29698C6.29698 20.0004 16.7455 10.5906 28.5784 10.5906ZM26.6424 5.32904C26.6233 4.81131 26.8126 4.30708 27.1676 3.92935C27.5229 3.5521 28.0146 3.33255 28.5328 3.31998C29.051 3.30742 29.5525 3.5028 29.9255 3.86283C30.2986 4.2224 30.5121 4.71688 30.5181 5.23501C30.5242 5.75368 30.3228 6.2528 29.9581 6.62125C29.5938 6.98967 29.0966 7.19712 28.5784 7.19665C28.0765 7.19712 27.5941 7.00268 27.2326 6.65427C26.8717 6.30586 26.6601 5.83096 26.6424 5.32904Z" fill="#BDBDBD"/>
</g>
</g>
</svg>
