<svg width="35" height="43" viewBox="0 0 35 43" fill="none" xmlns="http://www.w3.org/2000/svg">
<g id="Group 11299">
<g id="5a38d5f0-3364-4dc3-8b75-2f93ed154cfa">
<path id="Vector" d="M32.7268 7.85749C31.3592 4.47996 29.1846 2.69487 26.4376 2.69487C22.3083 2.69534 18.6151 6.38435 16.7675 8.68826C16.5682 7.02009 16.2004 5.12139 16.1933 5.08967C15.6621 2.67451 14.51 0.667406 14.4612 0.583146C14.3915 0.462908 14.2881 0.365761 14.1637 0.303746C14.0393 0.241731 13.8995 0.217574 13.7615 0.234269L6.20507 1.15262C6.19845 1.15356 6.19324 1.15688 6.18708 1.15782C6.11785 1.16742 6.05048 1.18753 5.98732 1.21747L5.97454 1.2222L5.97028 1.22362C5.86756 1.27569 3.45051 2.52729 3.14329 5.07736C2.95725 6.64896 3.02684 8.1737 3.09216 9.00495C-0.0619309 12.0066 -0.0231144 16.0985 0.00576142 18.9449L0.00765478 19.1238C0.00765478 19.2398 0.0076547 19.2398 0.94967 22.1435C0.99924 22.2959 1.09893 22.4271 1.23252 22.5156C1.3661 22.6042 1.52573 22.645 1.68544 22.6313C1.84515 22.6177 1.99553 22.5504 2.11214 22.4404C2.22874 22.3304 2.3047 22.1842 2.32766 22.0256C2.42802 21.689 4.21785 16.0833 8.58567 13.4817C9.24888 13.057 9.94162 12.6803 10.6586 12.3545C10.5299 12.7132 10.4638 13.0912 10.4631 13.4722C10.4631 15.3202 11.967 16.8241 13.815 16.8241C14.3372 16.8238 14.8519 16.7005 15.3175 16.4644C15.9585 21.9981 15.4827 28.8682 13.932 36.5123C8.80153 36.988 4.58424 38.9672 2.85358 41.7464C2.7539 41.9062 2.72178 42.0991 2.76431 42.2826C2.80683 42.4661 2.92051 42.6251 3.08033 42.7248C3.24015 42.8245 3.43302 42.8566 3.61652 42.8141C3.80002 42.7716 3.95911 42.6579 4.05879 42.4981C5.4898 40.1998 9.18638 38.4673 13.6243 37.9679C13.5935 38.1099 13.5651 38.25 13.5334 38.3925C13.5305 38.4062 13.5305 38.4195 13.5286 38.4332C13.5039 38.5715 13.5231 38.714 13.5836 38.8408C13.593 38.8616 13.603 38.882 13.6143 38.9019C13.6609 38.98 13.7212 39.0492 13.7923 39.1059C13.8127 39.122 13.8344 39.1357 13.8562 39.1494C13.8676 39.1565 13.8771 39.1651 13.8889 39.1717L13.931 39.1925L13.9386 39.1963C14.7642 39.629 15.8619 39.8685 17.0416 39.8685C17.8349 39.8685 18.6212 39.7553 19.3166 39.5409C19.3242 39.5385 19.3308 39.5343 19.3384 39.5314C19.3507 39.5272 19.3616 39.5215 19.3734 39.5168C19.4425 39.4888 19.5069 39.4533 19.5618 39.4079C19.6189 39.3589 19.6688 39.3001 19.7076 39.2356C19.7128 39.2271 19.719 39.2195 19.7242 39.2105C19.7611 39.1452 19.7857 39.0737 19.8009 38.9998C19.8023 38.9937 19.8061 38.9885 19.8075 38.9823C19.8577 38.6893 19.9017 38.3949 19.9476 38.1009C23.9779 38.7286 27.2414 40.3835 28.5554 42.499C28.6554 42.6585 28.8143 42.7718 28.9976 42.8143C29.1809 42.8568 29.3736 42.825 29.5334 42.7258C29.8667 42.5189 29.9689 42.081 29.7616 41.7483C28.2104 39.2507 24.6473 37.389 20.153 36.6945C21.1291 29.4893 20.9469 22.0341 19.6143 14.9491C20.7793 14.5591 21.6219 13.4594 21.6219 12.1652C21.6213 11.6294 21.4743 11.104 21.1967 10.6457C20.9191 10.1874 20.5216 9.81369 20.047 9.56495C21.0936 9.27477 22.386 9.05939 23.9424 9.05939L24.2042 9.06128L24.2847 9.06081C28.7543 9.06081 32.2705 14.3796 32.7344 15.3321C32.763 15.4387 32.8162 15.5371 32.8897 15.6195C32.9632 15.7018 33.0549 15.7658 33.1576 15.8064L33.1595 15.8069C33.2869 15.8573 33.4261 15.8699 33.5605 15.8431C33.6948 15.8163 33.8186 15.7513 33.9169 15.6559L33.923 15.6497C34.0002 15.5735 34.0603 15.4793 34.0963 15.3723C34.1309 15.2705 34.163 15.1744 34.1185 14.996C34.2487 13.4651 33.5439 9.87454 32.7268 7.85749ZM10.9426 5.36139C11.0964 5.49062 11.247 5.62269 11.3923 5.75949C11.9031 6.24044 12.5554 6.91595 13.2872 7.80495C12.082 7.21986 10.6927 6.74175 9.29668 6.61346C9.75207 5.66766 10.5426 5.42245 10.9426 5.36139ZM13.4501 1.70268C13.7933 2.37676 14.4574 3.80635 14.8068 5.395C15.007 6.30672 15.1542 7.21891 15.2603 8.0208C14.1289 6.5008 13.1088 5.42482 12.3665 4.72564C12.1477 4.52352 11.9216 4.32947 11.6886 4.14387C11.6531 4.10576 11.6134 4.07178 11.5703 4.04257C10.6647 3.32256 9.68627 2.72232 8.83325 2.26363L13.4501 1.70268ZM4.553 5.24636C4.71868 3.87215 5.83679 2.98836 6.35135 2.64895C6.93312 2.89416 8.24532 3.48777 9.56982 4.35121C8.84461 4.74269 8.13218 5.4447 7.77289 6.6234C6.74898 6.73559 5.80176 7.0608 4.9601 7.59713C4.78495 7.70128 4.61785 7.80873 4.45453 7.91761C4.43039 7.15974 4.43844 6.21299 4.553 5.24636ZM7.84058 12.2736C4.74329 14.1179 2.68553 17.4807 1.67015 19.7633L1.42588 19.0097L1.42541 18.9307C1.39322 15.7529 1.34872 11.4012 5.70472 8.80661C6.54827 8.26933 7.51301 7.99714 8.57289 7.99714C10.6619 7.99714 12.7381 9.03335 14.0986 9.91004C12.6278 10.0752 10.42 10.6305 7.84058 12.2736ZM11.8827 13.4731C11.8827 12.408 12.7495 11.5413 13.8146 11.5413C14.8797 11.5413 15.7464 12.408 15.7464 13.4731C15.7464 14.5382 14.8797 15.405 13.8146 15.405C12.7495 15.405 11.8827 14.5387 11.8827 13.4731ZM15.0434 38.1298C15.5591 35.7565 15.9847 33.3646 16.3192 30.9591L17.318 30.996L17.3706 29.5769L16.5014 29.5447C17.0577 24.9274 17.2551 19.9337 16.599 15.3368C16.7609 15.0945 16.8903 14.8318 16.9838 14.5557C17.3365 14.8071 17.7459 14.9818 18.19 15.0575C18.7875 18.2063 19.155 21.3944 19.2896 24.5965L18.3694 24.4909L18.2075 25.9016L19.3351 26.0308C19.3954 28.7659 19.2896 31.5022 19.0184 34.2244H17.9216V35.6446H18.8598C18.7969 36.1615 18.7278 36.6777 18.6525 37.193L18.6487 37.2091L18.6482 37.2223C18.5956 37.5797 18.5369 37.9362 18.4787 38.2921C18.0262 38.3935 17.5377 38.4465 17.042 38.4465C16.3083 38.4474 15.6091 38.3329 15.0434 38.1298ZM18.6842 13.6824C18.2818 13.6819 17.8961 13.5218 17.6116 13.2373C17.3271 12.9528 17.167 12.5671 17.1665 12.1647C17.1665 11.3278 17.8472 10.6471 18.6842 10.6471C19.5211 10.6471 20.2018 11.3278 20.2018 12.1647C20.2013 12.5671 20.0413 12.9528 19.7567 13.2373C19.4722 13.5218 19.0865 13.6819 18.6842 13.6824ZM24.2851 7.64021L24.2047 7.64068L23.9429 7.63879C21.8676 7.63879 20.171 7.99193 18.8631 8.44116C20.7045 6.47287 23.5547 4.11499 26.438 4.11499C27.7422 4.11499 28.8352 4.61914 29.7796 5.65677C31.3928 7.42861 32.1531 10.3583 32.4897 12.4753C30.9668 10.5822 28.0025 7.64021 24.2851 7.64021Z" fill="#FF6154"/>
</g>
</g>
</svg>
